<?xml version="1.0" encoding="iso-8859-1"?>
<!-- Uploaded to: SVG Repo, www.svgrepo.com, Generator: SVG Repo Mixer Tools -->
<svg height="800px" width="800px" version="1.1" id="Layer_1" xmlns="http://www.w3.org/2000/svg" xmlns:xlink="http://www.w3.org/1999/xlink" 
	 viewBox="0 0 512.108 512.108" xml:space="preserve">
<g transform="translate(1 1)">
	<g>
		<path style="fill:#FFE100;" d="M466.95,131.374c-3.413-0.853-6.827,0-10.24,0.853c17.92,5.973,17.067,27.307,8.533,46.08
			l-47.787,102.4v0.853c-4.267,13.653-4.267,36.693-1.707,51.2c7.68,41.813-5.973,73.387-14.507,84.48
			c-5.12,5.973-8.533,17.067-10.24,24.747c-8.533,32.427-25.6,60.587-58.88,60.587c33.28,0,75.947-28.16,83.627-60.587
			c1.707-7.68,5.12-18.773,10.24-24.747c9.387-11.093,22.187-41.813,14.507-84.48c-2.56-14.507-1.707-37.547,1.707-51.2v-0.853
			l47.787-102.4C500.23,158.681,489.99,134.788,466.95,131.374"/>
		<path style="fill:#FFE100;" d="M439.643,178.308c10.24-19.627,10.24-43.52-13.653-46.933c-11.093-1.707-15.36,7.68-25.6,24.747
			l-51.2,81.92l34.133-144.213c4.267-14.507-3.413-29.867-16.213-37.547c-5.12-4.267-19.627-5.973-26.453-5.973
			c27.307,0-12.8,20.48-17.067,34.133l-42.667,128V41.774c0-17.92-13.653-33.28-31.573-34.133
			c-19.627-0.853-36.693,11.093-36.693,34.133v187.733L169.99,78.468c-6.827-24.747-23.04-36.693-17.067-36.693
			c-14.507,0-18.773,8.533-23.893,22.187c-1.707,5.973-1.707,11.947,0,18.773l40.96,180.907l-15.36-23.04
			c-17.067-29.867-11.947,8.533-85.333-33.28c-3.413-1.707-6.827,3.413-10.24,5.12c-11.093,6.827-8.533,14.507-8.533,17.067
			s48.64,52.053,76.8,102.4c0,0,24.747,40.96,51.2,68.267v25.6c0,42.667,8.533,76.8,51.2,76.8h85.333
			c33.28,0,41.813-28.16,49.493-60.587c1.707-7.68,5.12-18.773,10.24-24.747c9.387-11.093,22.187-41.813,14.507-84.48
			c-2.56-14.507-1.707-37.547,1.707-51.2v-0.853L439.643,178.308z"/>
	</g>
	<path style="fill:#FFA800;" d="M441.35,131.374c-3.413-0.853-6.827,0-10.24,0.853c17.92,5.973,17.067,27.307,8.533,46.08
		l-47.787,102.4v0.853c-4.267,13.653-4.267,36.693-1.707,51.2c7.68,41.813-5.973,73.387-14.507,84.48
		c-5.12,5.973-8.533,17.067-10.24,24.747c-8.533,32.427-17.067,60.587-50.347,60.587c33.28,0,67.413-28.16,75.093-60.587
		c1.707-7.68,5.12-18.773,10.24-24.747c9.387-11.093,22.187-41.813,14.507-84.48c-2.56-14.507-1.707-37.547,1.707-51.2v-0.853
		l47.787-102.4C474.63,158.681,464.39,134.788,441.35,131.374"/>
	<g>
		<path style="fill:#FFFFFF;" d="M178.523,425.774v-25.6c-26.453-27.307-51.2-68.267-51.2-68.267
			c-28.16-50.347-76.8-99.84-76.8-102.4s-1.707-10.24,8.533-17.067c3.413-1.707,6.827-6.827,10.24-5.12
			c23.893,13.653,39.253,18.773,49.493,20.48c-20.48-21.333-52.053-29.867-75.947-20.48c-3.413,0.853-5.973,3.413-9.387,5.12
			c-10.24,6.827-8.533,14.507-8.533,17.067s48.64,52.053,76.8,102.4c0,0,24.747,40.96,51.2,68.267v25.6
			c0,42.667,34.133,76.8,76.8,76.8C187.056,502.574,178.523,468.441,178.523,425.774"/>
		<path style="fill:#FFFFFF;" d="M136.71,228.654c6.827-0.853,10.24,0,17.92,12.8l15.36,22.187L129.03,82.734
			c-1.707-6.827-1.707-12.8,0-18.773c3.413-10.24,6.827-17.92,15.36-21.333c-2.56,0-5.12-0.853-8.533-0.853
			c-14.507,0-27.307,8.533-32.427,22.187c-1.707,5.973-1.707,11.947,0,18.773L136.71,228.654z"/>
	</g>
	<path d="M204.123,340.441c-4.267,0-8.533-3.413-8.533-7.68c-0.853-10.24-5.973-14.507-13.653-18.773
		c-28.16-18.773-39.253-34.987-45.227-45.227c-2.56-4.267-0.853-9.387,3.413-11.947c4.267-2.56,9.387-0.853,11.947,3.413
		c3.413,5.973,11.947,21.333,40.107,40.107c7.68,5.12,19.627,12.8,20.48,32.427C212.656,336.174,209.243,340.441,204.123,340.441
		L204.123,340.441z"/>
	<path d="M195.59,442.841c-0.853,0-0.853,0-1.707,0c-20.48-3.413-29.867-15.36-39.253-26.453c-2.56-3.413-5.12-6.827-8.533-9.387
		c-3.413-3.413-3.413-8.533,0-11.947c3.413-3.413,8.533-3.413,11.947,0c3.413,3.413,6.827,7.68,9.387,11.093
		c7.68,10.24,14.507,18.773,28.16,20.48c4.267,0.853,7.68,5.12,6.827,9.387C203.27,439.428,199.856,442.841,195.59,442.841z"/>
	<path d="M280.923,232.068c-5.12,0-8.533-3.413-8.533-8.533v-11.093c0-5.12,3.413-8.533,8.533-8.533c5.12,0,8.533,3.413,8.533,8.533
		v11.093C289.456,228.654,286.043,232.068,280.923,232.068z"/>
	<path d="M366.256,442.841c-3.413,0-6.827-2.56-8.533-5.973c-0.853-4.267,1.707-9.387,5.973-10.24l4.267-0.853
		c17.067-4.267,19.627-5.12,24.747-11.947c2.56-3.413,8.533-4.267,11.947-1.707c3.413,2.56,4.267,8.533,1.707,11.947
		c-8.533,11.947-17.067,13.653-34.133,18.773h-3.413C367.963,442.841,367.11,442.841,366.256,442.841z"/>
	<path d="M315.056,511.108h-85.333c-46.933,0-85.333-38.4-85.333-85.333v-22.187c-16.213-17.067-30.72-38.4-40.96-53.76
		c-2.56-4.267-1.707-9.387,1.707-11.947c4.267-2.56,9.387-1.707,11.947,2.56c8.533,12.8,24.747,35.84,41.813,53.76
		c1.707,1.707,2.56,3.413,2.56,5.973v25.6c0,37.547,30.72,68.267,68.267,68.267h85.333c29.013,0,60.587-24.747,66.56-53.76
		c2.56-12.8,6.827-23.04,11.947-29.013c8.533-9.387,19.627-39.253,12.8-77.653c-2.56-14.507-2.56-39.253,1.707-54.613v-0.853
		c0-0.853,0-0.853,0.853-1.707l47.787-102.4c3.413-7.68,4.267-16.213,0-23.04c-3.413-6.827-9.387-11.093-17.067-11.947
		c-5.973-0.853-20.48,5.973-29.867,21.333l-53.76,81.92c-2.56,3.413-6.827,5.12-10.24,3.413c-3.413-1.707-5.973-5.973-4.267-10.24
		l40.107-144.213c3.413-11.093-0.853-23.04-9.387-28.16c-5.12-2.56-9.387-4.267-14.507-4.267c-13.653,0-23.04,17.92-25.6,28.16
		l-42.667,128c-1.707,4.267-5.12,5.973-9.387,5.973c-4.267-0.853-6.827-4.267-6.827-8.533V41.774c0-13.653-10.24-24.747-23.04-25.6
		c-8.533-0.853-15.36,1.707-20.48,6.827c-5.973,4.267-8.533,11.093-8.533,18.773v187.733c0,4.267-3.413,7.68-7.68,8.533
		c-4.267,0.853-8.533-1.707-9.387-5.973l-42.667-151.04c-6.827-25.6-14.507-30.72-25.6-30.72s-20.48,6.827-23.893,16.213
		c-1.707,3.413-1.707,8.533,0,13.653l40.96,181.76c0.853,4.267-0.853,7.68-5.12,9.387c-3.413,1.707-8.533,0-10.24-3.413
		l-15.36-23.04c-16.213-28.16-52.907-38.4-75.093-30.72c-2.56,0.853-5.12,2.56-8.533,4.267c-5.12,4.267-5.12,5.973-5.12,8.533
		c1.707,1.707,5.12,5.973,7.68,9.387c9.387,11.093,26.453,29.867,41.813,51.2c2.56,3.413,1.707,9.387-1.707,11.947
		c-3.413,2.56-9.387,1.707-11.947-1.707c-15.36-20.48-31.573-39.253-40.96-50.347c-11.947-13.653-12.8-14.507-11.947-19.627
		c0-3.413-0.853-14.507,11.947-23.04c2.56-1.707,6.827-4.267,11.947-5.973c28.16-10.24,64.853,0,86.187,23.893L94.896,84.441
		c-1.707-8.533-1.707-16.213,0.853-23.04c5.973-17.067,21.333-28.16,40.107-28.16c27.307,0,36.693,22.187,42.667,43.52l25.6,91.307
		V41.774c0-12.8,4.267-23.893,12.8-31.573c8.533-7.68,20.48-11.947,33.28-11.093c22.187,1.707,39.253,20.48,39.253,42.667v117.76
		l26.453-78.507c5.12-17.92,19.627-39.253,41.813-39.253c8.533,0,16.213,2.56,23.04,6.827c15.36,9.387,22.187,29.013,17.067,46.933
		l-25.6,93.013l23.893-36.693c11.947-18.773,31.573-30.72,46.08-29.013c12.8,1.707,23.893,9.387,29.867,20.48
		c5.973,11.947,5.973,26.453,0,38.4l-46.933,101.547c-3.413,11.947-4.267,34.133-1.707,47.787
		c8.533,47.787-7.68,80.213-17.067,91.307c-3.413,3.413-5.973,11.093-8.533,21.333C390.15,480.388,351.75,511.108,315.056,511.108z"
		/>
	<path d="M101.723,314.841c0-5.12-3.413-8.533-8.533-8.533s-8.533,3.413-8.533,8.533c0,5.12,3.413,8.533,8.533,8.533
		S101.723,319.961,101.723,314.841"/>
</g>
</svg>